<svg width="35" height="46" viewBox="0 0 35 46" fill="none" xmlns="http://www.w3.org/2000/svg">
<path d="M0 5.67261H4.31627C4.31627 5.67261 6.88789 5.53134 8.51404 7.52213L17.9385 19.584H11.3252C11.3252 19.584 8.39461 19.7142 7.20744 17.6942L0 5.67261Z" fill="url(#paint0_linear_1202_1381)"/>
<path d="M14.8488 30.5194L18.7295 37.0327C18.7295 37.0327 20.1559 40.3296 24.868 40.3296H34.7668L20.749 23.1213L14.8488 24.489C14.8488 24.4886 13.2258 26.6597 14.8488 30.5194Z" fill="url(#paint1_linear_1202_1381)"/>
<path d="M22.8576 25.7122L20.5858 22.9176L14.8607 24.4887C14.8607 24.4887 13.2377 26.6599 14.8607 30.5195L15.0989 30.9313C15.0799 30.676 14.9038 26.6932 22.8576 25.7122Z" fill="url(#paint2_linear_1202_1381)"/>
<path d="M15.0814 30.9208C15.0814 30.9208 13.288 26.2399 19.1397 23.9976C19.1397 23.9976 23.3081 22.4837 26.0964 23.3811C26.0964 23.3811 25.9035 19.9615 19.0566 20.1856C19.0566 20.1856 15.441 20.1577 12.597 21.1669C12.597 21.1669 9.58768 21.9796 11.8238 25.483L15.0814 30.9208Z" fill="url(#paint3_linear_1202_1381)"/>
<defs>
<linearGradient id="paint0_linear_1202_1381" x1="8.96927" y1="5.67039" x2="8.96927" y2="19.5856" gradientUnits="userSpaceOnUse">
<stop offset="0.033" stop-color="#19AADE"/>
<stop offset="0.951" stop-color="#134E8E"/>
</linearGradient>
<linearGradient id="paint1_linear_1202_1381" x1="24.4471" y1="23.1213" x2="24.4471" y2="40.3296" gradientUnits="userSpaceOnUse">
<stop offset="0.132" stop-color="#E02527"/>
<stop offset="0.742" stop-color="#A1141C"/>
</linearGradient>
<linearGradient id="paint2_linear_1202_1381" x1="14.1397" y1="26.9246" x2="22.8576" y2="26.9246" gradientUnits="userSpaceOnUse">
<stop offset="0.005" stop-color="#71251D"/>
<stop offset="0.742" stop-color="#C73127"/>
</linearGradient>
<linearGradient id="paint3_linear_1202_1381" x1="10.9978" y1="25.5478" x2="26.0967" y2="25.5478" gradientUnits="userSpaceOnUse">
<stop offset="0.148" stop-color="#E8EBEE"/>
<stop offset="0.742" stop-color="#95A5AF"/>
</linearGradient>
</defs>
</svg>
