<svg width="25" height="25" viewBox="0 0 25 25" fill="none" xmlns="http://www.w3.org/2000/svg">
<g clip-path="url(#clip0_1202_1722)">
<path d="M12.873 22.6185C10.2497 22.6185 7.73382 21.5764 5.87884 19.7214C4.02386 17.8664 2.98175 15.3505 2.98175 12.7272C2.98175 10.1039 4.02386 7.58797 5.87884 5.73299C7.73382 3.87801 10.2497 2.83589 12.873 2.83589C15.4964 2.83589 18.0123 3.87801 19.8673 5.73299C21.7222 7.58797 22.7643 10.1039 22.7643 12.7272C22.7643 15.3505 21.7222 17.8664 19.8673 19.7214C18.0123 21.5764 15.4964 22.6185 12.873 22.6185ZM12.873 24.0315C15.8711 24.0315 18.7464 22.8405 20.8664 20.7206C22.9864 18.6006 24.1774 15.7253 24.1774 12.7272C24.1774 9.7291 22.9864 6.85379 20.8664 4.73382C18.7464 2.61384 15.8711 1.42285 12.873 1.42285C9.87495 1.42285 6.99964 2.61384 4.87967 4.73382C2.75969 6.85379 1.5687 9.7291 1.5687 12.7272C1.5687 15.7253 2.75969 18.6006 4.87967 20.7206C6.99964 22.8405 9.87495 24.0315 12.873 24.0315Z" fill="#1262AF"/>
<path d="M10.3496 7.92709C10.4829 7.85845 10.6326 7.82791 10.7821 7.83884C10.9316 7.84977 11.0753 7.90173 11.1972 7.98902L16.9018 12.0638C17.0075 12.1392 17.0936 12.2387 17.153 12.3541C17.2124 12.4695 17.2434 12.5974 17.2434 12.7272C17.2434 12.8569 17.2124 12.9849 17.153 13.1002C17.0936 13.2156 17.0075 13.3152 16.9018 13.3905L11.1972 17.4653C11.0753 17.5525 10.9317 17.6045 10.7823 17.6154C10.6328 17.6263 10.4832 17.5958 10.35 17.5273C10.2167 17.4587 10.105 17.3547 10.027 17.2267C9.94898 17.0988 9.90778 16.9518 9.9079 16.8019V8.6524C9.90774 8.50258 9.94889 8.35562 10.0268 8.22766C10.1047 8.0997 10.2164 7.9957 10.3496 7.92709Z" fill="#1262AF"/>
</g>
<defs>
<clipPath id="clip0_1202_1722">
<rect width="24" height="24" fill="white" transform="translate(0.873047 0.727295)"/>
</clipPath>
</defs>
</svg>
