<svg width="25" height="24" viewBox="0 0 25 24" fill="none" xmlns="http://www.w3.org/2000/svg">
<g clip-path="url(#clip0_1202_1670)">
<path d="M12.873 21.8912C10.2497 21.8912 7.73382 20.8491 5.87884 18.9941C4.02386 17.1391 2.98175 14.6232 2.98175 11.9999C2.98175 9.37656 4.02386 6.86067 5.87884 5.00569C7.73382 3.15072 10.2497 2.1086 12.873 2.1086C15.4964 2.1086 18.0123 3.15072 19.8673 5.00569C21.7222 6.86067 22.7643 9.37656 22.7643 11.9999C22.7643 14.6232 21.7222 17.1391 19.8673 18.9941C18.0123 20.8491 15.4964 21.8912 12.873 21.8912ZM12.873 23.3042C15.8711 23.3042 18.7464 22.1133 20.8664 19.9933C22.9864 17.8733 24.1774 14.998 24.1774 11.9999C24.1774 9.0018 22.9864 6.1265 20.8664 4.00652C18.7464 1.88655 15.8711 0.695557 12.873 0.695557C9.87495 0.695557 6.99964 1.88655 4.87967 4.00652C2.75969 6.1265 1.5687 9.0018 1.5687 11.9999C1.5687 14.998 2.75969 17.8733 4.87967 19.9933C6.99964 22.1133 9.87495 23.3042 12.873 23.3042Z" fill="#1262AF"/>
<path d="M10.3496 7.19979C10.4829 7.13115 10.6326 7.10062 10.7821 7.11154C10.9316 7.12247 11.0753 7.17444 11.1972 7.26173L16.9018 11.3365C17.0075 11.4119 17.0936 11.5114 17.153 11.6268C17.2124 11.7422 17.2434 11.8701 17.2434 11.9999C17.2434 12.1297 17.2124 12.2576 17.153 12.3729C17.0936 12.4883 17.0075 12.5879 16.9018 12.6632L11.1972 16.738C11.0753 16.8252 10.9317 16.8772 10.7823 16.8881C10.6328 16.899 10.4832 16.8685 10.35 16.8C10.2167 16.7314 10.105 16.6274 10.027 16.4995C9.94898 16.3715 9.90778 16.2245 9.9079 16.0746V7.9251C9.90774 7.77529 9.94889 7.62832 10.0268 7.50037C10.1047 7.37241 10.2164 7.26841 10.3496 7.19979Z" fill="#1262AF"/>
</g>
<defs>
<clipPath id="clip0_1202_1670">
<rect width="24" height="24" fill="white" transform="translate(0.873047)"/>
</clipPath>
</defs>
</svg>
